<?xml version="1.0" encoding="utf-8"?>
<!-- Generator: Adobe Illustrator 23.0.6, SVG Export Plug-In . SVG Version: 6.00 Build 0)  -->
<svg version="1.1" xmlns="http://www.w3.org/2000/svg" xmlns:xlink="http://www.w3.org/1999/xlink" x="0px" y="0px"
	 viewBox="0 0 2000 1362" style="enable-background:new 0 0 2000 1362;" xml:space="preserve">
<style type="text/css">
	.st0{fill:#FFFFFF;}
</style>
<g id="Capa_2">
</g>
<g id="Capa_1">
	<g>
		<g>
			<path class="st0" d="M190.5,1132.5h34.4l39.8,92.2l41.7-92.2h28.9v133.9H307v-78.6l-34.2,78.6h-20.5l-33.5-78.6v78.6h-28.3
				V1132.5z"/>
			<path class="st0" d="M446,1172.5v93.9h-27v-12.4c-5.7,9.2-14.5,14.3-25.4,14.3c-24.1,0-38.6-16.3-38.6-42.8v-53h27v49.5
				c0,12.4,7.3,20.5,18.6,20.5c11.1,0,18.6-8,18.6-20.5v-49.5H446z"/>
			<path class="st0" d="M556,1213.2v53.2h-27v-49.7c0-12.2-7.5-20.3-18.6-20.3c-11.3,0-18.6,8-18.6,20.3v49.7h-27v-93.9h27v12.2
				c5.9-9,14.7-14.2,25.4-14.2C541.5,1170.6,556,1186.6,556,1213.2z"/>
			<path class="st0" d="M604.8,1143.2c0,9-7.5,16.4-16.4,16.4c-9,0-16.4-7.5-16.4-16.4c0-8.8,7.5-16.3,16.4-16.3
				C597.3,1126.9,604.8,1134.4,604.8,1143.2z M601.9,1172.5v93.9h-27v-93.9H601.9z"/>
			<path class="st0" d="M617,1219.5c0-27.9,21-49,48.8-49c23.5,0,43.4,16.1,45.9,37.7h-27.4c-1.9-6.9-9.6-11.9-18.6-11.9
				c-12.8,0-22.4,9.8-22.4,23.1c0,13,9.6,23,22.4,23c9,0,16.8-5.4,18.7-12.6h27.4c-2.1,22.4-22.2,38.4-46.1,38.4
				C638.1,1268.3,617,1247.4,617,1219.5z"/>
			<path class="st0" d="M756.8,1143.2c0,9-7.5,16.4-16.4,16.4s-16.4-7.5-16.4-16.4c0-8.8,7.5-16.3,16.4-16.3
				S756.8,1134.4,756.8,1143.2z M754,1172.5v93.9h-27v-93.9H754z"/>
			<path class="st0" d="M873.3,1219.3c0,27-19.3,49-43.6,49c-13,0-23.1-5.4-29.6-15.1v44.2h-27v-124.9h27v13.2
				c6.5-9.8,16.6-15.1,29.6-15.1C854,1170.6,873.3,1192.4,873.3,1219.3z M846.9,1219.3c0-12.8-10.3-23.1-23.3-23.1
				c-13.2,0-23.5,10.1-23.5,23.1c0,13.2,10.3,23.1,23.5,23.1C836.6,1242.5,846.9,1232.3,846.9,1219.3z"/>
			<path class="st0" d="M918.2,1143.2c0,9-7.5,16.4-16.4,16.4c-9,0-16.4-7.5-16.4-16.4c0-8.8,7.5-16.3,16.4-16.3
				C910.8,1126.9,918.2,1134.4,918.2,1143.2z M915.4,1172.5v93.9h-27v-93.9H915.4z"/>
			<path class="st0" d="M1028,1219.5c0,27.9-21.2,48.8-48.8,48.8c-27.7,0-48.8-20.8-48.8-48.8c0-27.9,21-49,48.8-49
				C1006.8,1170.6,1028,1191.6,1028,1219.5z M956.9,1219.5c0,13,9.6,23,22.4,23c12.6,0,22.4-9.9,22.4-23c0-13.4-9.8-23.1-22.4-23.1
				C966.4,1196.4,956.9,1206.1,956.9,1219.5z"/>
			<path class="st0" d="M1195,1132.5l-26,133.9h-27l2.5-12.6c-7.8,9.4-17.8,14.5-29.6,14.5c-25.6,0-41.7-23-36-53
				c5.2-26.2,25.8-44.8,49.5-44.8c14.3,0,24.3,5.7,29.1,15.9l10.5-53.9H1195z M1150.4,1223l0.6-3.3c1.9-14-7.1-23.9-20.1-23.9
				c-12.4,0-23.1,9.8-25.1,22.6c-2.1,14.2,6.9,24.7,19.9,24.7C1137.2,1243,1147.6,1234.1,1150.4,1223z"/>
			<path class="st0" d="M1286.4,1226.2h-68.7c1,11.3,8.8,19.7,21,19.7c11.3,0,17.2-4.8,19.5-11.1h26.6c-5.5,21.2-24.1,33.5-48,33.5
				c-25.8,0-44.4-18.6-44.4-43.2c0-29.8,25.1-54.5,53.4-54.5c25.8,0,42.7,17.4,42.7,41.1C1288.5,1216.1,1287.8,1221.4,1286.4,1226.2
				z M1262.1,1208c-0.2-10.1-6.9-15.7-17.4-15.7c-11.7,0-19.7,6.3-23.7,15.7H1262.1z"/>
			<path class="st0" d="M1480.5,1189.1c0,42.8-35.4,79.2-78.2,79.2c-35.8,0-59.9-24.5-59.9-58.3c0-43.2,35.2-79.4,78-79.4
				C1456.2,1130.6,1480.5,1155.1,1480.5,1189.1z M1371.5,1207.3c0,19.5,13.6,33.5,34.2,33.5c23.7,0,45.5-22.4,45.5-49
				c0-19.7-13.6-33.7-34.2-33.7C1393.3,1158.1,1371.5,1180.3,1371.5,1207.3z"/>
			<path class="st0" d="M1509.8,1266.4h-27l26-133.9h27L1509.8,1266.4z"/>
			<path class="st0" d="M1642.7,1172.5l-18.4,93.9h-27l2.5-12.6c-7.8,9.4-17.8,14.5-29.6,14.5c-25.6,0-41.7-23-36-53
				c5.2-26.2,25.8-44.8,49.5-44.8c14.3,0,24.3,5.7,29.3,15.9l2.7-14H1642.7z M1606.4,1220.3c2.1-14.3-6.9-24.5-20.1-24.5
				c-12.4,0-23.1,9.8-25.1,22.6c-2.1,14.2,6.9,24.7,19.9,24.7C1593.6,1243,1604.5,1232.7,1606.4,1220.3z"/>
			<path class="st0" d="M1754,1172.5l-76.5,125.1h-29.6l25.4-40l-19.1-85.1h28.3l10.3,54.1l31.6-54.1H1754z"/>
			<path class="st0" d="M1858.3,1172.5l-18.4,93.9h-27l2.5-12.6c-7.8,9.4-17.8,14.5-29.6,14.5c-25.6,0-41.7-23-36-53
				c5.2-26.2,25.8-44.8,49.5-44.8c14.3,0,24.3,5.7,29.3,15.9l2.7-14H1858.3z M1821.9,1220.3c2.1-14.3-6.9-24.5-20.1-24.5
				c-12.4,0-23.1,9.8-25.1,22.6c-2.1,14.2,6.9,24.7,19.9,24.7C1809.1,1243,1820,1232.7,1821.9,1220.3z"/>
		</g>
	</g>
	<g>
		<path class="st0" d="M64,1003.2c0-39.6,29.3-69,68.9-69c32.7,0,62.5,22,65.4,51.1h-40.4c-2.7-9-12.8-15.7-25.1-15.7
			c-18.2,0-31.6,14.3-31.6,33.7c0,19.1,13.4,33.3,31.6,33.3c12,0,22.4-7.5,25.1-17.4h40.7c-4.6,31-31.8,52.8-65.8,52.8
			C93.3,1071.9,64,1042.7,64,1003.2z"/>
		<path class="st0" d="M287.6,1053.6H243l-6.1,16.4h-38.4l52.8-133.9h28.7l53.2,133.9h-39.4L287.6,1053.6z M276.3,1022.6l-10.7-28.9
			l-10.9,28.9H276.3z"/>
		<path class="st0" d="M331.8,1024.1h36c0,8.4,6.5,13.6,16.3,13.6c9,0,14.5-3.3,14.5-9c0-15.1-65.8-3.6-65.8-52.6
			c0-24.3,20.3-41.9,47.4-41.9c35.8,0,50.1,23.3,50.1,47.8h-37.7c0.2-7.7-4.6-13.6-13.8-13.6c-6.9,0-10.7,2.5-10.7,7.5
			c0,14.7,66.4,2.9,66.4,52.8c0,24.9-21.4,43.2-50.5,43.2C353.9,1071.9,331.8,1051.6,331.8,1024.1z"/>
		<path class="st0" d="M524.9,1053.6h-44.6l-6.1,16.4h-38.4l52.8-133.9h28.7l53.2,133.9h-39.4L524.9,1053.6z M513.7,1022.6
			l-10.7-28.9l-10.9,28.9H513.7z"/>
		<path class="st0" d="M711.6,936.1V1070H694v-19.1c-6.9,13.4-19.1,21-35.6,21c-25.2,0-45.3-21.6-45.3-48.6s20.1-48.6,45.3-48.6
			c16.4,0,28.7,7.7,35.6,21v-59.7H711.6z M694,1023.3c0-18.4-13.6-31.8-31.9-31.8c-17.8,0-31.8,14-31.8,31.8
			c0,17.8,14,31.8,31.8,31.8C680.4,1055.1,694,1041.7,694,1023.3z"/>
		<path class="st0" d="M821.4,1028.1h-75c2.1,16.8,13.6,27.9,31,27.9c13,0,23.5-6.3,25.8-16.3h17.6c-3.4,19.5-21.4,32.1-44,32.1
			c-27.2,0-47.8-21.2-47.8-49c0-27,20.8-48.2,47.6-48.2c25.1,0,45.1,19.3,45.1,46.3C821.8,1022.8,821.6,1026.6,821.4,1028.1z
			 M802.6,1013.2c-1.5-13-12.1-22.4-26.8-22.4c-14.5,0-25.6,8.4-28.9,22.4H802.6z"/>
		<path class="st0" d="M903,1070h-17.8V936.1H903V1070z"/>
		<path class="st0" d="M1019,976.7v93.3h-17.6v-19.1c-6.9,13.4-19.1,21-35.6,21c-25.2,0-45.3-21.6-45.3-48.6s20.1-48.6,45.3-48.6
			c16.4,0,28.7,7.7,35.6,21v-19.1H1019z M1001.4,1023.3c0-18.4-13.6-31.8-31.9-31.8c-17.8,0-31.8,14-31.8,31.8
			c0,17.8,14,31.8,31.8,31.8C987.8,1055.1,1001.4,1041.7,1001.4,1023.3z"/>
		<path class="st0" d="M1071,1003.2c0-39.6,29.3-69,68.9-69c32.7,0,62.5,22,65.4,51.1h-40.4c-2.7-9-12.8-15.7-25.1-15.7
			c-18.2,0-31.6,14.3-31.6,33.7c0,19.1,13.4,33.3,31.6,33.3c12,0,22.4-7.5,25.1-17.4h40.7c-4.6,31-31.8,52.8-65.8,52.8
			C1100.2,1071.9,1071,1042.7,1071,1003.2z"/>
		<path class="st0" d="M1217.7,1017.2v-81.1h36.3v81.1c0,10.9,7.8,19.1,18,19.1c10.3,0,18-8.2,18-19.1v-81.1h36.3v81.1
			c0,31.4-23.1,54.5-54.3,54.5S1217.7,1048.6,1217.7,1017.2z"/>
		<path class="st0" d="M1377.2,936.1v99.1h57.6v34.8h-93.9V936.1H1377.2z"/>
		<path class="st0" d="M1525.2,970.9h-36.3v99.1h-36.3v-99.1h-36.3v-34.8h109V970.9z"/>
		<path class="st0" d="M1535.7,1017.2v-81.1h36.3v81.1c0,10.9,7.8,19.1,18,19.1c10.3,0,18-8.2,18-19.1v-81.1h36.3v81.1
			c0,31.4-23.1,54.5-54.3,54.5C1558.9,1071.7,1535.7,1048.6,1535.7,1017.2z"/>
		<path class="st0" d="M1729.1,1070l-26.4-47.4h-7.5v47.4h-36.3V936.1h53.4c22.8,0,43.8,19.5,43.8,43.2c0,15.7-6.1,28.1-16.6,35.6
			l33.7,55.1H1729.1z M1695.2,991.4h13.2c5.9,0,10.9-4.6,10.9-10.1c0-5.5-5-10.1-10.9-10.1h-13.2V991.4z"/>
		<path class="st0" d="M1860.5,1053.6h-44.6l-6.1,16.4h-38.4l52.8-133.9h28.7L1906,1070h-39.4L1860.5,1053.6z M1849.2,1022.6
			l-10.7-28.9l-10.9,28.9H1849.2z"/>
	</g>
	<g>
		<g>
			<path class="st0" d="M1324.2,315.6c-9.1,0-18.2,0.5-27.1,1.4c-52.3-104.9-159.8-171.9-277.7-171.9c-14.1,0-28.3,1-42.4,2.9
				c-58.7-55.2-135-85.6-216-85.6c-81.7,0-159.1,31.1-218.1,87.5c-55.9,53.5-89.7,124.5-96.2,201.1
				c-89.2,37.3-148.4,125.5-148.4,223c0,33.2,6.6,65.4,19.7,95.8c2.1,4.8,6.1,8.5,11.1,10.1c5,1.6,10.4,1,14.9-1.7l381.3-226.2
				l12.4-7.4l160-94.9l209.2,124.6l174.4,103.9l211.9,126.2c-26.6,33.2-62.5,58-103,71h-890c-42.5-8.3-80.7-29.6-110.5-61.6
				c-6.9-7.4-18.4-7.8-25.8-0.9c-7.4,6.9-7.8,18.4-0.9,25.8c35.5,38.1,81.2,63.3,132.1,72.9c1.1,0.2,2.2,0.3,3.3,0.3h894.6
				c1.8,0,3.6-0.3,5.3-0.8c55.6-17,104.2-53.2,136.6-101.9c2.8-4.2,3.7-9.3,2.6-14.1s-4.2-9.1-8.4-11.6L1300.2,547l-174.4-103.9
				L907.2,313c-5.7-3.4-12.9-3.4-18.6,0L719.2,413.4l-12.4,7.4l-47.8,28.3V389h25.5c11.7,0,21.1-9.5,21.1-21.1
				c0-11.7-9.5-21.1-21.1-21.1h-97.7c-11.7,0-21.1,9.5-21.1,21.1c0,11.7,9.5,21.1,21.1,21.1h25.5v87.8l-268.1,159
				c-6.3-19.9-9.5-40.6-9.5-61.8c0-86.2,54.5-163.8,135.5-193.1c6.9-2.5,11.7-8.9,12-16.3c6.9-149,129.2-265.8,278.6-265.8
				c74.3,0,144.3,28.9,196.9,81.4c4.2,4.1,10.1,6,15.9,5.1c15.1-2.5,30.4-3.8,45.6-3.8c108.1,0,206.3,63.9,250.3,162.7
				c3.4,7.6,11.4,11.9,19.6,10.6c11.4-1.9,23.2-2.8,35-2.8c119.6,0,216.9,97.3,216.9,216.9c0,15.1-1.6,30.2-4.7,44.9
				c-2.1,9.8,4.2,19.5,14.1,21.6c9.8,2.1,19.5-4.2,21.6-14.1c3.6-17.1,5.4-34.8,5.4-52.4C1577.5,429.2,1463.8,315.6,1324.2,315.6z"
				/>
			<g>
				<rect x="804.9" y="451.7" class="st0" width="78.7" height="69.1"/>
			</g>
			<g>
				<rect x="902.6" y="451.7" class="st0" width="78.7" height="69.1"/>
			</g>
			<g>
				<rect x="804.9" y="534.3" class="st0" width="78.7" height="69.1"/>
			</g>
			<g>
				<rect x="902.6" y="534.3" class="st0" width="78.7" height="69.1"/>
			</g>
		</g>
	</g>
</g>
</svg>
